<mxfile host="65bd71144e">
    <diagram id="DdG-y0ODtN2K0PK0t-bM" name="Page-1">
        <mxGraphModel dx="562" dy="1143" grid="1" gridSize="10" guides="1" tooltips="1" connect="1" arrows="1" fold="1" page="1" pageScale="1" pageWidth="827" pageHeight="1169" math="0" shadow="0">
            <root>
                <mxCell id="0"/>
                <mxCell id="1" parent="0"/>
                <mxCell id="4" style="edgeStyle=none;html=1;entryX=0.5;entryY=0;entryDx=0;entryDy=0;" edge="1" parent="1" source="2" target="3">
                    <mxGeometry relative="1" as="geometry"/>
                </mxCell>
                <mxCell id="2" value="&lt;div style=&quot;font-family: Menlo, Monaco, &amp;quot;Courier New&amp;quot;, monospace; font-size: 10.8px; line-height: 16px;&quot;&gt;&lt;div style=&quot;color: rgb(204, 204, 204); font-size: 10.8px; line-height: 16px;&quot;&gt;&lt;span style=&quot;color: rgb(86, 156, 214);&quot;&gt;static&lt;/span&gt; &lt;span style=&quot;color: rgb(86, 156, 214);&quot;&gt;void&lt;/span&gt; &lt;span style=&quot;color: rgb(220, 220, 170);&quot;&gt;event_loop&lt;/span&gt;(&lt;span style=&quot;color: rgb(78, 201, 176);&quot;&gt;VideoState&lt;/span&gt; &lt;span style=&quot;color: rgb(212, 212, 212);&quot;&gt;*&lt;/span&gt;&lt;span style=&quot;color: rgb(156, 220, 254);&quot;&gt;cur_stream&lt;/span&gt;){&lt;/div&gt;&lt;div style=&quot;color: rgb(204, 204, 204); font-size: 10.8px; line-height: 16px;&quot;&gt;...&lt;/div&gt;&lt;div style=&quot;color: rgb(204, 204, 204); font-size: 10.8px; line-height: 16px;&quot;&gt;按下左右箭头或者PGUP,PGDWN后，设置seek增量incr(单位秒），转入do_seek逻辑&lt;/div&gt;&lt;div style=&quot;color: rgb(204, 204, 204); font-size: 10.8px; line-height: 16px;&quot;&gt;}&lt;/div&gt;&lt;/div&gt;" style="rounded=0;whiteSpace=wrap;html=1;fillColor=#d80073;fontColor=#ffffff;strokeColor=#A50040;" vertex="1" parent="1">
                    <mxGeometry x="30" y="90" width="170" height="130" as="geometry"/>
                </mxCell>
                <mxCell id="6" style="edgeStyle=none;html=1;entryX=0;entryY=0.5;entryDx=0;entryDy=0;" edge="1" parent="1" source="3" target="5">
                    <mxGeometry relative="1" as="geometry"/>
                </mxCell>
                <mxCell id="7" value="true" style="edgeLabel;html=1;align=center;verticalAlign=middle;resizable=0;points=[];" vertex="1" connectable="0" parent="6">
                    <mxGeometry x="-0.1765" y="-1" relative="1" as="geometry">
                        <mxPoint x="1" as="offset"/>
                    </mxGeometry>
                </mxCell>
                <mxCell id="9" style="edgeStyle=none;html=1;entryX=0.5;entryY=0;entryDx=0;entryDy=0;" edge="1" parent="1" source="3" target="8">
                    <mxGeometry relative="1" as="geometry"/>
                </mxCell>
                <mxCell id="11" value="false" style="edgeLabel;html=1;align=center;verticalAlign=middle;resizable=0;points=[];" vertex="1" connectable="0" parent="9">
                    <mxGeometry x="0.1" y="4" relative="1" as="geometry">
                        <mxPoint as="offset"/>
                    </mxGeometry>
                </mxCell>
                <mxCell id="3" value="&lt;div style=&quot;color: rgb(204, 204, 204); font-family: Menlo, Monaco, &amp;quot;Courier New&amp;quot;, monospace; font-size: 10.8px; line-height: 16px;&quot;&gt;&lt;span style=&quot;color: rgb(197, 134, 192);&quot;&gt;if&lt;/span&gt; (&lt;span style=&quot;color: rgb(156, 220, 254);&quot;&gt;seek_by_bytes&lt;/span&gt;)&lt;/div&gt;" style="rhombus;whiteSpace=wrap;html=1;labelBackgroundColor=none;fillColor=#647687;fontColor=#ffffff;strokeColor=#314354;" vertex="1" parent="1">
                    <mxGeometry x="22.5" y="250" width="185" height="40" as="geometry"/>
                </mxCell>
                <mxCell id="12" style="edgeStyle=none;html=1;entryX=0.5;entryY=0;entryDx=0;entryDy=0;" edge="1" parent="1" source="5" target="10">
                    <mxGeometry relative="1" as="geometry"/>
                </mxCell>
                <mxCell id="5" value="根据incr的秒数，再乘以字节率（比特率 / 8），算出要偏移多少字节，这里传入stream_seek的pos和rel的单位是字节" style="rounded=1;whiteSpace=wrap;html=1;labelBackgroundColor=none;fillColor=#647687;fontColor=#ffffff;strokeColor=#314354;" vertex="1" parent="1">
                    <mxGeometry x="260" y="223.75" width="130" height="92.5" as="geometry"/>
                </mxCell>
                <mxCell id="15" style="edgeStyle=none;html=1;entryX=0.5;entryY=0;entryDx=0;entryDy=0;" edge="1" parent="1" source="8" target="14">
                    <mxGeometry relative="1" as="geometry"/>
                </mxCell>
                <mxCell id="8" value="计算seek到的目标时间，这里传入stream_seek的pos和rel的单位是微秒" style="rounded=1;whiteSpace=wrap;html=1;labelBackgroundColor=none;fillColor=#647687;fontColor=#ffffff;strokeColor=#314354;" vertex="1" parent="1">
                    <mxGeometry x="55" y="330" width="120" height="65" as="geometry"/>
                </mxCell>
                <mxCell id="18" style="edgeStyle=none;html=1;entryX=1;entryY=0.5;entryDx=0;entryDy=0;" edge="1" parent="1" source="10" target="16">
                    <mxGeometry relative="1" as="geometry">
                        <Array as="points">
                            <mxPoint x="325" y="555"/>
                        </Array>
                    </mxGeometry>
                </mxCell>
                <mxCell id="10" value="&lt;div style=&quot;color: rgb(204, 204, 204); font-family: Menlo, Monaco, &amp;quot;Courier New&amp;quot;, monospace; font-size: 10.8px; line-height: 16px;&quot;&gt;&lt;span style=&quot;color: rgb(220, 220, 170);&quot;&gt;stream_seek&lt;/span&gt;(&lt;span style=&quot;color: rgb(156, 220, 254);&quot;&gt;cur_stream&lt;/span&gt;, &lt;span style=&quot;color: rgb(156, 220, 254);&quot;&gt;pos&lt;/span&gt;, &lt;span style=&quot;color: rgb(156, 220, 254);&quot;&gt;incr&lt;/span&gt;, &lt;span style=&quot;color: rgb(181, 206, 168);&quot;&gt;1&lt;/span&gt;)&lt;/div&gt;" style="rounded=1;whiteSpace=wrap;html=1;labelBackgroundColor=none;fillColor=#647687;fontColor=#ffffff;strokeColor=#314354;" vertex="1" parent="1">
                    <mxGeometry x="247.5" y="425" width="155" height="60" as="geometry"/>
                </mxCell>
                <mxCell id="17" style="edgeStyle=none;html=1;entryX=0.5;entryY=0;entryDx=0;entryDy=0;" edge="1" parent="1" source="14" target="16">
                    <mxGeometry relative="1" as="geometry"/>
                </mxCell>
                <mxCell id="14" value="&lt;span style=&quot;font-family: Menlo, Monaco, &amp;quot;Courier New&amp;quot;, monospace; font-size: 10.8px; color: rgb(220, 220, 170);&quot;&gt;stream_seek&lt;/span&gt;&lt;span style=&quot;font-family: Menlo, Monaco, &amp;quot;Courier New&amp;quot;, monospace; font-size: 10.8px; color: rgb(204, 204, 204);&quot;&gt;(...,&amp;nbsp;&lt;/span&gt;&lt;font style=&quot;font-family: Menlo, Monaco, &amp;quot;Courier New&amp;quot;, monospace; font-size: 10.8px;&quot; color=&quot;#b5cea8&quot;&gt;0)&lt;/font&gt;" style="rounded=1;whiteSpace=wrap;html=1;labelBackgroundColor=none;fillColor=#647687;fontColor=#ffffff;strokeColor=#314354;" vertex="1" parent="1">
                    <mxGeometry x="45" y="440" width="140" height="30" as="geometry"/>
                </mxCell>
                <mxCell id="20" style="edgeStyle=none;html=1;entryX=0.5;entryY=0;entryDx=0;entryDy=0;fontSize=11;dashed=1;" edge="1" parent="1" source="16" target="19">
                    <mxGeometry relative="1" as="geometry"/>
                </mxCell>
                <mxCell id="16" value="设置is中执行seek操作所用的相关变量，并且设置is-&amp;gt;seek_req，从而告知解复用线程执行seek逻辑" style="rounded=0;whiteSpace=wrap;html=1;labelBackgroundColor=none;fillColor=#76608a;fontColor=#ffffff;strokeColor=#432D57;" vertex="1" parent="1">
                    <mxGeometry x="42.5" y="510" width="145" height="90" as="geometry"/>
                </mxCell>
                <mxCell id="22" style="edgeStyle=none;html=1;entryX=0;entryY=0.5;entryDx=0;entryDy=0;fontSize=11;" edge="1" parent="1" source="19" target="21">
                    <mxGeometry relative="1" as="geometry"/>
                </mxCell>
                <mxCell id="19" value="&lt;font style=&quot;font-size: 11px;&quot;&gt;解复用线程read_thread里面进入&lt;span style=&quot;color: rgb(204, 204, 204); font-family: Menlo, Monaco, &amp;quot;Courier New&amp;quot;, monospace;&quot;&gt;        &lt;/span&gt;&lt;span style=&quot;font-family: Menlo, Monaco, &amp;quot;Courier New&amp;quot;, monospace; color: rgb(197, 134, 192);&quot;&gt;if&lt;/span&gt;&lt;span style=&quot;color: rgb(204, 204, 204); font-family: Menlo, Monaco, &amp;quot;Courier New&amp;quot;, monospace;&quot;&gt; (&lt;/span&gt;&lt;span style=&quot;font-family: Menlo, Monaco, &amp;quot;Courier New&amp;quot;, monospace; color: rgb(156, 220, 254);&quot;&gt;is&lt;/span&gt;&lt;span style=&quot;color: rgb(204, 204, 204); font-family: Menlo, Monaco, &amp;quot;Courier New&amp;quot;, monospace;&quot;&gt;-&amp;gt;&lt;/span&gt;&lt;span style=&quot;font-family: Menlo, Monaco, &amp;quot;Courier New&amp;quot;, monospace; color: rgb(156, 220, 254);&quot;&gt;seek_req&lt;/span&gt;&lt;span style=&quot;color: rgb(204, 204, 204); font-family: Menlo, Monaco, &amp;quot;Courier New&amp;quot;, monospace;&quot;&gt;)&lt;/span&gt;&lt;/font&gt;&lt;div style=&quot;color: rgb(204, 204, 204); font-family: Menlo, Monaco, &amp;quot;Courier New&amp;quot;, monospace; line-height: 16px; font-size: 11px;&quot;&gt;&lt;div style=&quot;&quot;&gt;&lt;font style=&quot;font-size: 11px;&quot;&gt;        {...}逻辑&lt;/font&gt;&lt;/div&gt;&lt;/div&gt;" style="rounded=1;whiteSpace=wrap;html=1;labelBackgroundColor=none;fillColor=#6a00ff;fontColor=#ffffff;strokeColor=#3700CC;" vertex="1" parent="1">
                    <mxGeometry x="55" y="650" width="120" height="60" as="geometry"/>
                </mxCell>
                <mxCell id="24" style="edgeStyle=none;html=1;entryX=0.5;entryY=0;entryDx=0;entryDy=0;fontSize=11;" edge="1" parent="1" source="21" target="23">
                    <mxGeometry relative="1" as="geometry"/>
                </mxCell>
                <mxCell id="21" value="&lt;div style=&quot;color: rgb(204, 204, 204); font-family: Menlo, Monaco, &amp;quot;Courier New&amp;quot;, monospace; font-size: 10.8px; line-height: 16px;&quot;&gt;&lt;span style=&quot;color: rgb(156, 220, 254);&quot;&gt;ret&lt;/span&gt; &lt;span style=&quot;color: rgb(212, 212, 212);&quot;&gt;=&lt;/span&gt; &lt;span style=&quot;color: rgb(220, 220, 170);&quot;&gt;avformat_seek_file(...)&lt;/span&gt;&lt;/div&gt;" style="rounded=1;whiteSpace=wrap;html=1;labelBackgroundColor=none;fontSize=11;fillColor=#6a00ff;fontColor=#ffffff;strokeColor=#3700CC;" vertex="1" parent="1">
                    <mxGeometry x="220" y="660" width="170" height="40" as="geometry"/>
                </mxCell>
                <mxCell id="27" style="edgeStyle=none;html=1;entryX=0.5;entryY=0;entryDx=0;entryDy=0;fontSize=11;" edge="1" parent="1" source="23" target="26">
                    <mxGeometry relative="1" as="geometry"/>
                </mxCell>
                <mxCell id="23" value="&lt;div style=&quot;color: rgb(204, 204, 204); font-family: Menlo, Monaco, &amp;quot;Courier New&amp;quot;, monospace; font-size: 10.8px; line-height: 16px;&quot;&gt;&lt;div style=&quot;font-size: 10.8px; line-height: 16px;&quot;&gt;&lt;span style=&quot;color: rgb(220, 220, 170);&quot;&gt;packet_queue_flush(...)清除PacketQueue缓存&lt;/span&gt;&lt;/div&gt;&lt;/div&gt;" style="rounded=1;whiteSpace=wrap;html=1;labelBackgroundColor=none;fontSize=11;fillColor=#6a00ff;fontColor=#ffffff;strokeColor=#3700CC;" vertex="1" parent="1">
                    <mxGeometry x="220" y="740" width="170" height="40" as="geometry"/>
                </mxCell>
                <mxCell id="29" style="edgeStyle=none;html=1;entryX=1;entryY=0.5;entryDx=0;entryDy=0;fontSize=11;" edge="1" parent="1" source="26" target="28">
                    <mxGeometry relative="1" as="geometry"/>
                </mxCell>
                <mxCell id="26" value="&lt;div style=&quot;color: rgb(204, 204, 204); font-family: Menlo, Monaco, &amp;quot;Courier New&amp;quot;, monospace; font-size: 10.8px; line-height: 16px;&quot;&gt;&lt;div style=&quot;font-size: 10.8px; line-height: 16px;&quot;&gt;&lt;div style=&quot;font-size: 10.8px; line-height: 16px;&quot;&gt;&lt;span style=&quot;color: rgb(220, 220, 170);&quot;&gt;set_clock&lt;/span&gt;(&lt;span style=&quot;color: rgb(212, 212, 212);&quot;&gt;&amp;amp;&lt;/span&gt;&lt;span style=&quot;color: rgb(156, 220, 254);&quot;&gt;is&lt;/span&gt;-&amp;gt;&lt;span style=&quot;color: rgb(156, 220, 254);&quot;&gt;extclk&lt;/span&gt;, &lt;span style=&quot;color: rgb(156, 220, 254);&quot;&gt;seek_target&lt;/span&gt; &lt;span style=&quot;color: rgb(212, 212, 212);&quot;&gt;/&lt;/span&gt; (&lt;span style=&quot;color: rgb(86, 156, 214);&quot;&gt;double&lt;/span&gt;)AV_TIME_BASE, &lt;span style=&quot;color: rgb(181, 206, 168);&quot;&gt;0&lt;/span&gt;);&lt;/div&gt;&lt;/div&gt;&lt;/div&gt;" style="rounded=1;whiteSpace=wrap;html=1;labelBackgroundColor=none;fontSize=11;fillColor=#6a00ff;fontColor=#ffffff;strokeColor=#3700CC;" vertex="1" parent="1">
                    <mxGeometry x="220" y="820" width="170" height="50" as="geometry"/>
                </mxCell>
                <mxCell id="28" value="清标志位，如果当前视频暂停，则从当前位置渲染一帧后暂停" style="rounded=1;whiteSpace=wrap;html=1;labelBackgroundColor=none;fontSize=11;fillColor=#6a00ff;fontColor=#ffffff;strokeColor=#3700CC;" vertex="1" parent="1">
                    <mxGeometry x="55" y="815" width="120" height="60" as="geometry"/>
                </mxCell>
            </root>
        </mxGraphModel>
    </diagram>
</mxfile>